<?xml version="1.0" standalone="no"?>
<!DOCTYPE svg PUBLIC "-//W3C//DTD SVG 20010904//EN"
 "http://www.w3.org/TR/2001/REC-SVG-20010904/DTD/svg10.dtd">
<svg version="1.0" xmlns="http://www.w3.org/2000/svg"
 width="200.000000pt" height="200.000000pt" viewBox="0 0 200.000000 200.000000"
 preserveAspectRatio="xMidYMid meet">
<metadata>
Created by potrace 1.14, written by Peter Selinger 2001-2017
</metadata>
<g transform="translate(0.000000,200.000000) scale(0.100000,-0.100000)"
fill="#000000" stroke="none">
<path d="M1121 1983 c-60 -20 -88 -39 -137 -90 l-41 -43 -19 21 c-10 12 -41
33 -69 47 -68 36 -197 39 -265 5 -88 -43 -161 -140 -176 -230 -5 -34 -13 -43
-55 -67 -54 -30 -88 -69 -118 -136 -22 -48 -27 -132 -11 -174 9 -23 6 -26 -43
-49 -73 -33 -118 -76 -153 -144 -26 -51 -29 -68 -28 -143 0 -75 4 -92 29 -139
51 -92 151 -161 237 -161 20 0 28 -5 28 -17 0 -10 13 -41 29 -69 29 -51 72
-89 124 -112 42 -18 126 -14 172 8 49 23 63 35 99 82 l28 38 18 -23 c32 -41
74 -130 85 -182 12 -52 16 -73 21 -115 9 -74 13 -131 13 -212 l1 -78 155 0
c85 0 155 3 156 8 0 4 2 45 5 92 6 118 29 241 60 322 14 37 29 70 33 72 4 3
37 6 73 7 79 3 151 28 196 69 33 30 33 30 70 14 55 -24 147 -21 205 6 65 30
123 100 143 168 35 119 -11 252 -106 309 l-26 15 34 68 c79 159 20 336 -141
418 -43 22 -65 26 -128 25 l-76 0 3 46 c8 141 -68 272 -191 330 -63 30 -170
36 -234 14z m-54 -1185 c-5 -16 21 -107 39 -132 11 -16 10 -24 -5 -55 -10 -20
-24 -54 -31 -76 -20 -62 -21 -62 -46 3 -26 71 -78 168 -106 198 l-19 21 38 5
c21 3 56 15 78 26 48 24 58 26 52 10z"/>
</g>
</svg>
